<svg width="349" height="339" viewBox="0 0 349 339" fill="none" xmlns="http://www.w3.org/2000/svg">
<path d="M173.01 0.0298005C169.93 0.18497 166.912 0.948694 164.133 2.27617L42.9996 60.155C39.8644 61.6523 37.1096 63.8309 34.9398 66.5291C32.77 69.2272 31.241 72.3755 30.4664 75.7402L0.581964 205.751C-0.108111 208.746 -0.18534 211.848 0.354848 214.874C0.895037 217.9 2.04167 220.787 3.72688 223.365C4.1355 223.996 4.57497 224.606 5.04372 225.193L88.8875 329.44C91.0577 332.138 93.8128 334.316 96.9481 335.812C100.083 337.309 103.518 338.086 106.998 338.085L241.455 338.054C244.933 338.057 248.367 337.282 251.502 335.788C254.637 334.294 257.393 332.12 259.565 329.425L343.378 225.162C345.549 222.464 347.079 219.314 347.854 215.948C348.63 212.582 348.63 209.086 347.855 205.72L317.924 75.7092C317.149 72.3445 315.62 69.1962 313.451 66.4981C311.281 63.7999 308.526 61.6213 305.391 60.124L184.242 2.27617C180.747 0.606311 176.885 -0.166108 173.01 0.0298005V0.0298005Z" fill="#326CE5"/>
<path d="M174.21 44.2742C170.206 44.2746 166.959 47.8812 166.96 52.3301C166.96 52.3984 166.974 52.4636 166.975 52.5315C166.969 53.136 166.94 53.8643 166.96 54.3906C167.055 56.9566 167.615 58.9205 167.951 61.2846C168.561 66.3446 169.072 70.539 168.757 74.4375C168.45 75.9076 167.368 77.2521 166.402 78.1866L166.232 81.254C161.881 81.6145 157.5 82.2747 153.125 83.268C134.299 87.5425 118.091 97.2398 105.75 110.333C104.95 109.787 103.549 108.782 103.132 108.474C101.838 108.649 100.529 109.048 98.8252 108.056C95.5806 105.871 92.6254 102.857 89.0496 99.225C87.4112 97.4878 86.2247 95.8336 84.278 94.159C83.836 93.7788 83.1613 93.2644 82.6669 92.8732C81.145 91.6598 79.3499 91.027 77.6164 90.9676C75.3876 90.8913 73.2419 91.7628 71.8378 93.5239C69.3416 96.6547 70.1408 101.44 73.6194 104.213C73.6547 104.242 73.6923 104.263 73.7279 104.291C74.2059 104.678 74.7912 105.175 75.2306 105.499C77.2963 107.025 79.1833 107.805 81.2416 109.016C85.5779 111.694 89.1728 113.914 92.0241 116.592C93.1376 117.779 93.3322 119.87 93.4804 120.775L95.8042 122.851C83.3642 141.572 77.6068 164.697 81.0092 188.259L77.9727 189.142C77.1725 190.175 76.0416 191.801 74.8588 192.287C71.1282 193.462 66.9296 193.893 61.8608 194.425C59.4811 194.622 57.4277 194.504 54.9048 194.982C54.3496 195.087 53.5759 195.289 52.9683 195.432C52.9472 195.436 52.9275 195.442 52.9063 195.447C52.8732 195.455 52.8297 195.471 52.7979 195.478C48.5245 196.511 45.7792 200.438 46.663 204.309C47.547 208.18 51.7212 210.534 56.0203 209.607C56.0513 209.6 56.0964 209.599 56.1287 209.591C56.1773 209.58 56.22 209.557 56.2682 209.545C56.8674 209.413 57.6185 209.267 58.1427 209.127C60.6231 208.463 62.4195 207.487 64.6494 206.632C69.4468 204.912 73.4201 203.474 77.2911 202.914C78.9078 202.788 80.6112 203.912 81.4585 204.386L84.6189 203.844C91.8916 226.392 107.133 244.617 126.432 256.053L125.115 259.213C125.59 260.44 126.114 262.101 125.76 263.312C124.353 266.962 121.942 270.814 119.197 275.108C117.868 277.092 116.508 278.632 115.309 280.902C115.022 281.445 114.656 282.28 114.379 282.854C112.516 286.841 113.883 291.433 117.462 293.156C121.064 294.89 125.535 293.061 127.47 289.066C127.473 289.061 127.483 289.057 127.486 289.051C127.488 289.046 127.484 289.04 127.486 289.035C127.761 288.469 128.152 287.724 128.384 287.192C129.412 284.839 129.753 282.822 130.476 280.546C132.394 275.727 133.448 270.671 136.089 267.52C136.812 266.658 137.991 266.326 139.213 265.999L140.856 263.024C157.68 269.482 176.513 271.215 195.326 266.944C199.618 265.969 203.761 264.708 207.766 263.194C208.228 264.013 209.086 265.587 209.316 265.983C210.558 266.387 211.913 266.596 213.018 268.229C214.994 271.605 216.345 275.598 217.991 280.422C218.714 282.698 219.071 284.715 220.098 287.068C220.332 287.604 220.721 288.359 220.997 288.927C222.928 292.935 227.413 294.77 231.02 293.032C234.599 291.308 235.968 286.717 234.103 282.73C233.826 282.156 233.445 281.321 233.158 280.778C231.959 278.508 230.599 276.983 229.269 275C226.524 270.705 224.248 267.138 222.84 263.489C222.252 261.607 222.94 260.436 223.398 259.213C223.123 258.898 222.536 257.121 222.19 256.285C242.246 244.442 257.04 225.538 263.988 203.704C264.926 203.852 266.556 204.14 267.086 204.247C268.176 203.527 269.179 202.589 271.145 202.744C275.016 203.304 278.989 204.742 283.787 206.462C286.017 207.316 287.813 208.308 290.293 208.972C290.818 209.112 291.569 209.243 292.168 209.375C292.216 209.386 292.259 209.41 292.307 209.421C292.34 209.428 292.385 209.429 292.416 209.437C296.715 210.362 300.89 208.009 301.773 204.138C302.656 200.268 299.912 196.339 295.638 195.308C295.016 195.166 294.135 194.926 293.531 194.812C291.008 194.334 288.955 194.452 286.575 194.254C281.506 193.723 277.308 193.291 273.577 192.116C272.056 191.526 270.974 189.716 270.448 188.971L267.52 188.119C269.038 177.136 268.628 165.706 266.001 154.269C263.35 142.725 258.664 132.168 252.415 122.866C253.166 122.183 254.584 120.927 254.987 120.558C255.104 119.257 255.003 117.893 256.35 116.452C259.201 113.775 262.796 111.555 267.132 108.877C269.191 107.666 271.093 106.885 273.159 105.36C273.626 105.015 274.264 104.469 274.755 104.074C278.232 101.3 279.033 96.5147 276.536 93.3844C274.039 90.2542 269.2 89.9594 265.723 92.7338C265.228 93.1258 264.556 93.6373 264.111 94.0196C262.165 95.6943 260.963 97.3483 259.324 99.0856C255.749 102.717 252.793 105.747 249.549 107.932C248.143 108.75 246.083 108.467 245.149 108.412L242.391 110.379C226.667 93.8904 205.257 83.3484 182.204 81.3005C182.14 80.3344 182.055 78.5882 182.034 78.0626C181.09 77.1596 179.95 76.3886 179.664 74.4375C179.348 70.539 179.875 66.3446 180.485 61.2846C180.821 58.9205 181.381 56.9566 181.476 54.3906C181.498 53.8073 181.463 52.9608 181.461 52.3301C181.46 47.8812 178.214 44.2738 174.21 44.2742H174.21ZM165.132 100.511L162.978 138.544L162.824 138.622C162.679 142.024 159.879 144.741 156.441 144.741C155.032 144.741 153.732 144.289 152.676 143.517L152.614 143.548L121.428 121.441C131.013 112.016 143.273 105.051 157.401 101.843C159.982 101.257 162.562 100.822 165.132 100.511ZM183.304 100.511C199.8 102.54 215.055 110.009 226.744 121.456L195.76 143.424L195.651 143.378C192.901 145.386 189.027 144.888 186.883 142.2C186.005 141.099 185.544 139.805 185.489 138.498L185.458 138.482L183.304 100.511ZM110.119 135.647L138.594 161.116L138.563 161.271C141.133 163.506 141.512 167.383 139.368 170.071C138.49 171.172 137.315 171.91 136.053 172.255L136.022 172.379L99.5224 182.914C97.6647 165.927 101.668 149.414 110.119 135.647ZM238.1 135.663C242.331 142.52 245.535 150.179 247.442 158.483C249.326 166.686 249.799 174.876 249.022 182.79L212.337 172.224L212.306 172.069C209.021 171.171 207.002 167.83 207.766 164.478C208.08 163.105 208.809 161.943 209.796 161.085L209.78 161.008L238.1 135.663H238.1ZM168.37 163.084H180.035L187.286 172.147L184.683 183.456L174.21 188.491L163.707 183.441L161.104 172.131L168.37 163.084ZM205.768 194.099C206.264 194.074 206.757 194.119 207.24 194.208L207.302 194.13L245.056 200.513C239.531 216.036 228.958 229.485 214.831 238.484L200.175 203.085L200.222 203.023C198.875 199.894 200.223 196.226 203.32 194.734C204.113 194.352 204.942 194.141 205.768 194.099H205.768ZM142.358 194.254C145.239 194.294 147.824 196.294 148.493 199.227C148.807 200.6 148.654 201.961 148.137 203.162L148.245 203.302L133.745 238.345C120.187 229.645 109.389 216.619 103.612 200.637L141.041 194.285L141.103 194.363C141.522 194.286 141.947 194.248 142.358 194.254V194.254ZM173.978 209.607C174.982 209.57 176 209.776 176.968 210.242C178.237 210.853 179.217 211.815 179.834 212.969H179.973L198.425 246.308C196.03 247.111 193.568 247.797 191.05 248.368C176.939 251.572 162.873 250.602 150.135 246.261L168.54 212.984H168.571C169.675 210.92 171.77 209.688 173.978 209.607Z" fill="white" stroke="white" stroke-width="0.25"/>
</svg>
