<svg width="762" height="348" viewBox="0 0 762 348" fill="none" xmlns="http://www.w3.org/2000/svg">
<g clip-path="url(#clip0)">
<path fill-rule="evenodd" clip-rule="evenodd" d="M62.4941 281.591V255.113C62.4941 251.633 64.6691 248.839 68.2714 248.839H69.2683C72.869 248.839 75.0343 251.637 75.0343 255.113V310.858C75.0343 324.452 68.3183 335.269 56.6148 342.16C51.2536 345.336 45.1339 347.005 38.9024 346.99H36.4151C22.8181 346.99 12.0159 340.27 5.11387 328.574C1.9331 323.214 0.264288 317.091 0.284856 310.858V308.374C0.284856 294.776 7.00405 283.965 18.6979 277.062C24.0581 273.879 30.1812 272.209 36.4151 272.231H38.9024C48.1041 272.231 55.9108 275.798 62.4941 281.591ZM12.8235 309.614C12.8235 319.434 17.5829 326.817 26.1874 331.526C29.6668 333.429 33.4439 334.452 37.4136 334.452C47.0522 334.452 54.2019 329.904 59.1329 321.737C61.426 317.937 62.4941 313.779 62.4941 309.36C62.4941 300.848 58.4645 294.204 51.6045 289.27C47.4455 286.28 42.7637 284.779 37.658 284.779C27.1519 284.779 19.5912 290.088 15.0535 299.516C13.5226 302.704 12.8235 306.088 12.8235 309.614ZM118.538 272.231H120.276C134.805 272.231 145.855 279.279 152.857 291.962C155.657 297.035 157.155 302.573 157.155 308.374V310.858C157.155 324.452 150.452 335.284 138.731 342.161C133.305 345.344 127.31 346.99 121.022 346.99H118.538C104.941 346.99 94.1351 340.27 87.2363 328.574C84.054 323.214 82.3835 317.092 82.4024 310.858V308.374C82.4024 294.774 89.1492 283.999 100.814 277.065C106.237 273.843 112.236 272.231 118.538 272.231ZM94.9427 309.614C94.9427 319.146 99.6196 326.158 107.671 331.089C111.451 333.403 115.615 334.452 120.031 334.452C129.45 334.452 136.412 329.676 141.257 321.727C143.568 317.937 144.613 313.773 144.613 309.36C144.613 300.496 140.344 293.725 133.046 288.819C129.047 286.128 124.595 284.779 119.779 284.779C109.273 284.779 101.712 290.088 97.1759 299.516C95.6418 302.704 94.9427 306.088 94.9427 309.614ZM209.286 285.781C207.392 284.894 203.848 284.6 201.803 284.522C191.326 284.127 183.745 290.028 179.298 299.27C177.763 302.458 177.062 305.832 177.062 309.36C177.062 320.101 182.702 327.621 192.289 332.205C195.791 333.879 200.312 334.196 204.139 334.196C207.505 334.196 212.263 332.134 215.251 330.715L215.768 330.469H218.087L218.343 330.521C221.195 331.115 223.347 332.922 223.347 335.991V337.232C223.347 344.867 209.394 346.615 204.07 346.987C185.281 348.287 171.23 337.968 165.873 320.047C164.942 316.935 164.523 313.844 164.523 310.601V308.12C164.523 294.522 171.272 283.75 182.935 276.822C188.358 273.602 194.355 271.984 200.655 271.984H203.141C209.824 271.984 215.98 273.882 221.499 277.651L221.952 277.965L222.238 278.437C222.834 279.425 223.347 280.567 223.347 281.742V282.983C223.347 286.184 220.952 287.906 218.062 288.463L217.822 288.505H217.081C215.21 288.505 210.956 286.568 209.286 285.781ZM249.96 294.272C254.831 289.395 259.718 284.527 264.662 279.73C266.039 278.392 271.255 272.728 273.309 272.728H275.555L275.811 272.781C278.672 273.375 280.815 275.186 280.815 278.261V279.501C280.815 281.598 278.358 284.035 277.003 285.47C274.123 288.524 271.09 291.478 268.142 294.468L252.991 309.849C259.514 316.387 266.031 322.929 272.501 329.517C274.296 331.336 276.077 333.168 277.843 335.013C278.466 335.669 279.386 336.484 279.908 337.392C280.47 338.243 280.815 339.203 280.815 340.227V341.522L280.742 341.821C280.038 344.683 278.222 346.99 275.052 346.99H274.053C271.979 346.99 269.635 344.644 268.214 343.302C265.285 340.541 262.458 337.638 259.587 334.817L249.96 325.367V340.472C249.96 343.951 247.782 346.748 244.184 346.748H243.197C239.595 346.748 237.42 343.951 237.42 340.472V255.355C237.42 251.876 239.596 249.093 243.197 249.093H244.184C247.782 249.093 249.96 251.876 249.96 255.355V294.272ZM406.251 272.728H407.497C411.258 272.728 413.768 275.262 413.768 279.002C413.768 284.194 408.805 285.522 404.511 285.522C398.88 285.522 393.502 288.932 389.62 292.756C384.779 297.528 382.661 303.641 382.661 310.36V340.718C382.661 344.197 380.488 346.99 376.884 346.99H375.893C372.289 346.99 370.117 344.199 370.117 340.718V308.617C370.117 296.29 376.118 286.228 386.122 279.17C392.096 274.955 398.938 272.73 406.251 272.73V272.728ZM317.124 332.89C321.688 334.484 326.891 334.256 331.573 333.44C333.968 332.422 340.091 329.751 342.344 330.142L342.695 330.202L343.019 330.361C344.395 331.027 345.707 331.971 346.409 333.371C348.05 336.651 347.262 339.949 344.038 341.812L342.966 342.432C331.071 349.296 318.419 348.345 306.562 341.933C300.893 338.868 296.556 334.319 293.356 328.773L292.609 327.477C284.972 314.252 286.003 300.341 294.615 287.765C297.588 283.418 301.474 280.06 306.016 277.434L307.735 276.442C318.937 269.975 330.943 270.419 342.448 276.094C348.634 279.146 353.646 283.695 357.1 289.678L357.721 290.756C360.23 295.103 356.98 298.889 353.625 301.479C349.732 304.482 345.801 308.098 342.069 311.318C333.748 318.502 325.439 325.702 317.124 332.89ZM306.355 325.326C315.66 317.348 324.968 309.362 334.249 301.349C337.421 298.614 340.899 295.776 344.045 292.9C341.52 289.719 337.303 287.425 333.72 286.058C326.486 283.302 319.354 284.228 312.721 288.057C304.039 293.07 300.341 301.053 300.665 310.988C300.794 314.901 301.846 318.672 303.922 322C304.654 323.174 305.471 324.276 306.355 325.326ZM238.68 74.0408H275.685V111.869H294.394C303.035 111.869 311.922 110.33 320.104 107.557C324.125 106.193 328.637 104.297 332.604 101.91C327.38 95.09 324.713 86.479 323.929 77.991C322.861 66.4444 325.192 51.4169 333.005 42.3803L336.895 37.8814L341.53 41.6083C353.2 50.9832 363.015 64.085 364.745 79.0203C378.796 74.8871 395.295 75.8646 407.68 83.0126L412.761 85.945L410.088 91.1656C399.613 111.608 377.712 117.942 356.302 116.821C324.264 196.618 254.514 234.395 169.943 234.395C126.249 234.395 86.1634 218.062 63.3356 179.297L62.9618 178.666L59.6362 171.898C51.9201 154.835 49.3567 136.142 51.0947 117.463L51.6175 111.869H83.2618V74.0408H120.264V37.0366H194.274V0.0325012H238.68V74.0408Z" fill="#364548"/>
<path fill-rule="evenodd" clip-rule="evenodd" d="M358.568 88.0359C361.048 68.7521 346.618 53.6064 337.669 46.4147C327.355 58.3384 325.753 89.5878 341.933 102.745C332.903 110.765 313.876 118.034 294.394 118.034H57.2394C55.346 138.372 58.9159 157.1 67.0706 173.129L69.7683 178.065C71.4764 180.962 73.343 183.763 75.3595 186.455C85.1098 187.081 94.0995 187.296 102.324 187.115H102.327C118.489 186.759 131.676 184.849 141.671 181.386C142.378 181.166 143.142 181.23 143.803 181.564C144.463 181.897 144.968 182.475 145.21 183.174C145.453 183.873 145.414 184.639 145.101 185.31C144.789 185.981 144.228 186.504 143.537 186.769C142.207 187.231 140.822 187.662 139.391 188.071H139.386C131.516 190.319 123.077 191.831 112.189 192.502C112.836 192.514 111.516 192.599 111.512 192.599C111.142 192.624 110.676 192.677 110.304 192.696C106.018 192.938 101.393 192.988 96.6645 192.988C91.4924 192.988 86.3996 192.891 80.7048 192.599L80.5591 192.696C100.319 214.906 131.215 228.226 169.944 228.226C251.908 228.226 321.431 191.892 352.217 110.322C374.058 112.563 395.049 106.993 404.597 88.353C389.388 79.577 369.829 82.375 358.568 88.0359Z" fill="#22A0C8"/>
<path fill-rule="evenodd" clip-rule="evenodd" d="M358.567 88.0359C361.048 68.7522 346.618 53.6064 337.669 46.4147C327.355 58.3384 325.753 89.5878 341.933 102.745C332.903 110.765 313.876 118.034 294.394 118.034H71.283C70.3152 149.18 81.8731 172.822 102.322 187.115H102.327C118.489 186.759 131.676 184.849 141.671 181.386C142.378 181.166 143.142 181.23 143.802 181.564C144.463 181.897 144.968 182.475 145.21 183.174C145.453 183.873 145.413 184.639 145.101 185.31C144.789 185.981 144.228 186.504 143.537 186.769C142.207 187.231 140.821 187.662 139.391 188.071H139.386C131.516 190.319 122.352 192.025 111.464 192.696C111.461 192.696 111.2 192.446 111.197 192.446C139.091 206.755 179.538 206.703 225.91 188.89C277.906 168.914 326.292 130.858 360.051 87.3303C359.543 87.5601 359.048 87.7947 358.567 88.0359Z" fill="#37B1D9"/>
<path fill-rule="evenodd" clip-rule="evenodd" d="M57.6844 142.744C59.1571 153.639 62.3452 163.839 67.0706 173.129L69.7683 178.065C71.4762 180.963 73.3428 183.763 75.3596 186.455C85.1115 187.081 94.1011 187.296 102.327 187.115C118.489 186.759 131.677 184.849 141.671 181.386C142.378 181.166 143.142 181.23 143.803 181.564C144.463 181.897 144.968 182.475 145.21 183.174C145.453 183.873 145.414 184.639 145.101 185.31C144.789 185.981 144.228 186.504 143.537 186.769C142.207 187.231 140.822 187.662 139.391 188.071H139.386C131.516 190.319 122.4 191.928 111.512 192.601C111.139 192.624 110.486 192.628 110.109 192.649C105.827 192.889 101.249 193.036 96.5189 193.036C91.3484 193.036 86.0598 192.938 80.3682 192.648C100.128 214.857 131.215 228.226 169.945 228.226C240.114 228.226 301.163 201.592 336.596 142.744H57.6844Z" fill="#1B81A5"/>
<path fill-rule="evenodd" clip-rule="evenodd" d="M73.4176 142.744C77.6122 161.873 87.6927 176.889 102.327 187.115C118.489 186.759 131.677 184.849 141.671 181.386C142.378 181.166 143.142 181.23 143.803 181.564C144.463 181.897 144.968 182.475 145.21 183.174C145.453 183.873 145.414 184.639 145.101 185.31C144.789 185.981 144.228 186.504 143.537 186.769C142.207 187.231 140.822 187.662 139.391 188.071H139.386C131.516 190.319 122.208 191.928 111.318 192.601C139.211 206.907 179.541 206.701 225.91 188.89C253.962 178.112 280.96 162.068 305.181 142.744H73.4176Z" fill="#1D91B4"/>
<path fill-rule="evenodd" clip-rule="evenodd" d="M89.4275 80.2081H121.499V112.28H89.4275V80.2081ZM92.0993 82.8815H94.6303V109.608H92.0993V82.8815ZM96.8571 82.8815H99.4901V109.608H96.8587V82.8815H96.8571ZM101.715 82.8815H104.348V109.608H101.715V82.8815ZM106.577 82.8815H109.208V109.608H106.577V82.8815ZM111.436 82.8815H114.068V109.608H111.436V82.8815ZM116.295 82.8815H118.827V109.608H116.295V82.8815ZM126.432 43.204H158.505V75.2739H126.43V43.204H126.432ZM129.105 45.8774H131.634V72.6021H129.105V45.8774ZM133.863 45.8774H136.494V72.6021H133.864V45.8774H133.863ZM138.721 45.8774H141.352V72.6021H138.721V45.8774ZM143.581 45.8774H146.212V72.6021H143.581V45.8774ZM148.441 45.8774H151.074V72.6021H148.441V45.8774ZM153.299 45.8774H155.833V72.6021H153.299V45.8774Z" fill="#23A3C2"/>
<path fill-rule="evenodd" clip-rule="evenodd" d="M126.432 80.2081H158.505V112.28H126.43V80.2081H126.432ZM129.105 82.8816H131.634V109.608H129.105V82.8816ZM133.863 82.8816H136.494V109.608H133.864V82.8816H133.863ZM138.721 82.8816H141.352V109.608H138.721V82.8816ZM143.581 82.8816H146.212V109.608H143.581V82.8816ZM148.44 82.8816H151.073V109.608H148.44V82.8816ZM153.299 82.8816H155.833V109.608H153.299V82.8816Z" fill="#34BBDE"/>
<path fill-rule="evenodd" clip-rule="evenodd" d="M163.437 80.2081H195.509V112.28H163.437V80.2081ZM166.109 82.8816H168.638V109.608H166.109V82.8816ZM170.867 82.8816H173.498V109.608H170.867V82.8816ZM175.727 82.8816H178.358V109.608H175.727V82.8816ZM180.586 82.8816H183.218V109.608H180.586V82.8816ZM185.445 82.8816H188.079V109.608H185.445V82.8816ZM190.304 82.8816H192.835V109.608H190.304V82.8816Z" fill="#23A3C2"/>
<path fill-rule="evenodd" clip-rule="evenodd" d="M163.437 43.204H195.509V75.2739H163.437V43.204ZM166.109 45.8774H168.638V72.6021H166.109V45.8774ZM170.867 45.8774H173.498V72.6021H170.867V45.8774ZM175.727 45.8774H178.358V72.6021H175.727V45.8774ZM180.586 45.8774H183.218V72.6021H180.586V45.8774ZM185.445 45.8774H188.079V72.6021H185.445V45.8774ZM190.304 45.8774H192.835V72.6021H190.304V45.8774ZM200.441 80.2081H232.513V112.28H200.441V80.2081ZM203.115 82.8815H205.644V109.608H203.115V82.8815ZM207.873 82.8815H210.504V109.608H207.873V82.8815ZM212.731 82.8815H215.362V109.608H212.731V82.8815ZM217.591 82.8815H220.224V109.608H217.591V82.8815ZM222.45 82.8815H225.083V109.608H222.45V82.8815ZM227.31 82.8815H229.841V109.608H227.31V82.8815Z" fill="#34BBDE"/>
<path fill-rule="evenodd" clip-rule="evenodd" d="M200.441 43.204H232.513V75.2739H200.441V43.204ZM203.115 45.8774H205.644V72.6021H203.115V45.8774ZM207.873 45.8774H210.504V72.6021H207.873V45.8774ZM212.731 45.8774H215.362V72.6021H212.731V45.8774ZM217.591 45.8774H220.224V72.6021H217.591V45.8774ZM222.45 45.8774H225.083V72.6021H222.45V45.8774ZM227.31 45.8774H229.841V72.6021H227.31V45.8774Z" fill="#23A3C2"/>
<path fill-rule="evenodd" clip-rule="evenodd" d="M200.441 6.19824H232.513V38.273H200.441V6.19824ZM203.115 8.87006H205.644V35.598H203.115V8.86844V8.87006ZM207.873 8.87006H210.504V35.598H207.873V8.86844V8.87006ZM212.731 8.87006H215.362V35.598H212.731V8.86844V8.87006ZM217.591 8.87006H220.224V35.598H217.591V8.86844V8.87006ZM222.45 8.87006H225.083V35.598H222.45V8.86844V8.87006ZM227.31 8.87006H229.841V35.598H227.31V8.86844V8.87006Z" fill="#34BBDE"/>
<path fill-rule="evenodd" clip-rule="evenodd" d="M237.446 80.2081H269.517V112.28H237.446V80.2081ZM240.116 82.8816H242.648V109.608H240.117V82.8816H240.116ZM244.874 82.8816H247.507V109.608H244.875V82.8816H244.874ZM249.735 82.8816H252.368V109.608H249.735V82.8816ZM254.593 82.8816H257.226V109.608H254.593V82.8816ZM259.454 82.8816H262.086V109.608H259.454V82.8816ZM264.313 82.8816H266.844V109.608H264.313V82.8816Z" fill="#23A3C2"/>
<path fill-rule="evenodd" clip-rule="evenodd" d="M156.496 164.277C157.669 164.262 158.832 164.479 159.919 164.917C161.007 165.355 161.996 166.004 162.83 166.827C163.665 167.651 164.327 168.632 164.779 169.713C165.231 170.794 165.464 171.955 165.463 173.127C165.463 174.299 165.23 175.46 164.778 176.541C164.325 177.622 163.663 178.603 162.828 179.426C161.993 180.249 161.004 180.898 159.916 181.335C158.829 181.773 157.665 181.99 156.493 181.974C154.167 181.942 151.947 180.995 150.314 179.339C148.681 177.683 147.765 175.45 147.766 173.124C147.766 170.798 148.682 168.565 150.316 166.91C151.95 165.254 154.171 164.308 156.496 164.277Z" fill="#D3ECEC"/>
<path fill-rule="evenodd" clip-rule="evenodd" d="M156.496 166.787C157.306 166.787 158.078 166.939 158.79 167.216C158.298 167.501 157.914 167.941 157.698 168.466C157.481 168.991 157.443 169.573 157.59 170.122C157.737 170.67 158.06 171.156 158.511 171.502C158.961 171.849 159.513 172.037 160.081 172.039C161.06 172.039 161.91 171.497 162.35 170.694C162.871 171.949 162.975 173.339 162.645 174.658C162.316 175.977 161.571 177.155 160.521 178.018C159.471 178.881 158.171 179.383 156.813 179.451C155.455 179.518 154.112 179.147 152.981 178.393C151.851 177.638 150.993 176.54 150.534 175.26C150.075 173.981 150.041 172.587 150.435 171.286C150.829 169.985 151.631 168.846 152.722 168.035C153.814 167.225 155.137 166.788 156.496 166.787ZM0 145.942H411.578C402.618 143.67 383.226 140.598 386.423 128.853C370.127 147.709 330.83 142.082 320.911 132.785C309.868 148.803 245.573 142.713 241.088 130.235C227.242 146.484 184.339 146.484 170.493 130.235C166.006 142.713 101.712 148.803 90.6671 132.784C80.7501 142.082 41.4545 147.709 25.1581 128.854C28.3559 140.598 8.96378 143.67 0 145.944" fill="#364548"/>
<path fill-rule="evenodd" clip-rule="evenodd" d="M180.015 228.035C158.103 217.638 146.078 203.502 139.386 188.073C131.246 190.395 121.463 191.881 110.095 192.518C105.813 192.758 101.307 192.881 96.582 192.881C91.1316 192.881 85.3882 192.719 79.3584 192.4C99.4529 212.483 124.172 227.945 169.945 228.226C173.324 228.226 176.677 228.161 180.015 228.035Z" fill="#BDD9D7"/>
<path fill-rule="evenodd" clip-rule="evenodd" d="M147.525 202.311C144.494 198.195 141.553 193.023 139.391 188.07C131.251 190.395 121.465 191.881 110.095 192.52C117.905 196.758 129.073 200.686 147.526 202.311" fill="#D3ECEC"/>
<path d="M585.968 4.98744C582.887 5.14261 579.869 5.90634 577.091 7.23381L455.957 65.1127C452.822 66.6099 450.067 68.7886 447.897 71.4867C445.728 74.1848 444.199 77.3332 443.424 80.6978L413.539 210.708C412.849 213.704 412.772 216.806 413.312 219.832C413.853 222.857 414.999 225.745 416.684 228.323C417.093 228.953 417.532 229.563 418.001 230.151L501.845 334.398C504.015 337.095 506.77 339.273 509.906 340.77C513.041 342.267 516.476 343.043 519.955 343.043L654.412 343.012C657.89 343.014 661.325 342.24 664.46 340.746C667.595 339.252 670.351 337.077 672.522 334.383L756.335 230.12C758.507 227.421 760.037 224.272 760.812 220.906C761.587 217.54 761.587 214.044 760.812 210.677L730.882 80.6668C730.107 77.3022 728.578 74.1538 726.408 71.4557C724.238 68.7576 721.484 66.579 718.348 65.0817L597.199 7.23381C593.704 5.56395 589.842 4.79153 585.968 4.98744Z" fill="#326CE5"/>
<path d="M587.168 49.2317C583.164 49.2321 579.917 52.8388 579.917 57.2877C579.917 57.3559 579.931 57.4212 579.933 57.4891C579.927 58.0936 579.898 58.8218 579.917 59.3481C580.013 61.9141 580.572 63.878 580.909 66.2422C581.519 71.3021 582.03 75.4965 581.715 79.395C581.408 80.8651 580.325 82.2096 579.36 83.1441L579.189 86.2116C574.838 86.5721 570.458 87.2322 566.083 88.2256C547.257 92.5 531.048 102.197 518.708 115.29C517.907 114.744 516.506 113.739 516.09 113.431C514.795 113.606 513.487 114.006 511.783 113.013C508.538 110.829 505.583 107.814 502.007 104.183C500.369 102.445 499.182 100.791 497.236 99.1166C496.793 98.7363 496.119 98.222 495.624 97.8307C494.102 96.6174 492.307 95.9846 490.574 95.9252C488.345 95.8489 486.199 96.7203 484.795 98.4814C482.299 101.612 483.098 106.398 486.577 109.171C486.612 109.199 486.65 109.221 486.685 109.248C487.163 109.636 487.749 110.132 488.188 110.457C490.254 111.982 492.141 112.763 494.199 113.974C498.535 116.652 502.13 118.872 504.982 121.549C506.095 122.736 506.29 124.828 506.438 125.732L508.762 127.808C496.322 146.529 490.564 169.654 493.967 193.216L490.93 194.099C490.13 195.133 488.999 196.759 487.816 197.244C484.086 198.419 479.887 198.851 474.818 199.382C472.439 199.58 470.385 199.462 467.862 199.94C467.307 200.045 466.533 200.247 465.926 200.389C465.905 200.394 465.885 200.4 465.864 200.405C465.831 200.412 465.787 200.428 465.755 200.436C461.482 201.468 458.737 205.396 459.621 209.266C460.505 213.137 464.679 215.491 468.978 214.564C469.009 214.557 469.054 214.556 469.086 214.549C469.135 214.538 469.178 214.514 469.226 214.503C469.825 214.371 470.576 214.225 471.1 214.084C473.581 213.42 475.377 212.444 477.607 211.59C482.404 209.869 486.378 208.432 490.249 207.872C491.865 207.745 493.569 208.869 494.416 209.344L497.576 208.801C504.849 231.349 520.09 249.574 539.39 261.01L538.073 264.17C538.548 265.398 539.071 267.058 538.718 268.27C537.31 271.919 534.9 275.771 532.155 280.065C530.826 282.049 529.466 283.589 528.266 285.86C527.979 286.403 527.614 287.237 527.337 287.812C525.473 291.799 526.84 296.391 530.42 298.114C534.022 299.848 538.493 298.019 540.428 294.024C540.431 294.018 540.441 294.014 540.443 294.008C540.445 294.004 540.441 293.997 540.443 293.993C540.719 293.427 541.109 292.682 541.342 292.149C542.369 289.796 542.711 287.779 543.433 285.503C545.352 280.685 546.406 275.628 549.046 272.478C549.77 271.615 550.949 271.283 552.171 270.956L553.813 267.982C570.638 274.44 589.471 276.173 608.284 271.901C612.575 270.927 616.719 269.666 620.724 268.152C621.185 268.971 622.043 270.544 622.273 270.941C623.515 271.345 624.871 271.553 625.976 273.187C627.951 276.563 629.303 280.556 630.949 285.379C631.671 287.655 632.028 289.672 633.056 292.025C633.29 292.562 633.678 293.317 633.954 293.885C635.885 297.893 640.37 299.728 643.978 297.99C647.557 296.266 648.925 291.674 647.061 287.688C646.784 287.114 646.403 286.279 646.116 285.736C644.916 283.465 643.556 281.941 642.227 279.957C639.482 275.663 637.205 272.096 635.798 268.446C635.209 266.564 635.897 265.394 636.355 264.171C636.081 263.856 635.493 262.078 635.147 261.242C655.204 249.4 669.998 230.495 676.945 208.662C677.883 208.809 679.514 209.098 680.043 209.204C681.134 208.485 682.137 207.547 684.102 207.701C687.973 208.261 691.947 209.699 696.744 211.42C698.974 212.274 700.77 213.265 703.251 213.929C703.775 214.07 704.526 214.201 705.125 214.332C705.174 214.344 705.216 214.368 705.265 214.379C705.297 214.386 705.342 214.387 705.373 214.394C709.673 215.32 713.848 212.967 714.731 209.096C715.613 205.225 712.869 201.297 708.596 200.265C707.974 200.124 707.092 199.884 706.489 199.769C703.966 199.292 701.912 199.409 699.533 199.212C694.464 198.681 690.265 198.249 686.535 197.074C685.014 196.484 683.932 194.674 683.405 193.929L680.477 193.077C681.995 182.094 681.586 170.663 678.959 159.226C676.308 147.683 671.622 137.125 665.372 127.824C666.123 127.141 667.542 125.885 667.944 125.515C668.062 124.214 667.961 122.85 669.307 121.41C672.159 118.732 675.754 116.512 680.09 113.834C682.148 112.623 684.051 111.843 686.116 110.317C686.584 109.973 687.221 109.426 687.712 109.032C691.19 106.257 691.991 101.472 689.494 98.342C686.997 95.2118 682.158 94.9169 678.68 97.6913C678.185 98.0834 677.513 98.5948 677.069 98.9772C675.122 100.652 673.92 102.306 672.282 104.043C668.706 107.675 665.751 110.705 662.506 112.889C661.1 113.708 659.041 113.424 658.106 113.369L655.349 115.337C639.624 98.848 618.215 88.3059 595.162 86.2581C595.097 85.292 595.013 83.5457 594.991 83.0202C594.048 82.1171 592.908 81.3461 592.621 79.395C592.306 75.4965 592.832 71.3021 593.442 66.2422C593.779 63.878 594.338 61.9141 594.434 59.3481C594.455 58.7648 594.421 57.9184 594.418 57.2877C594.418 52.8388 591.172 49.2313 587.168 49.2317H587.168ZM578.089 105.468L575.936 143.502L575.781 143.579C575.637 146.982 572.836 149.699 569.398 149.699C567.99 149.699 566.69 149.246 565.634 148.475L565.572 148.506L534.386 126.398C543.971 116.974 556.23 110.009 570.359 106.801C572.94 106.215 575.519 105.78 578.089 105.468ZM596.262 105.468C612.757 107.497 628.012 114.966 639.702 126.414L608.717 148.382L608.609 148.335C605.859 150.344 601.984 149.846 599.84 147.158C598.962 146.057 598.502 144.762 598.446 143.455L598.415 143.44L596.262 105.468ZM523.077 140.605L551.551 166.074L551.52 166.229C554.09 168.463 554.469 172.34 552.326 175.028C551.448 176.129 550.272 176.868 549.011 177.213L548.98 177.337L512.48 187.871C510.622 170.884 514.626 154.372 523.077 140.605ZM651.058 140.62C655.288 147.478 658.492 155.137 660.399 163.44C662.284 171.644 662.757 179.833 661.98 187.747L625.294 177.182L625.263 177.027C621.978 176.129 619.959 172.787 620.724 169.436C621.037 168.063 621.766 166.901 622.753 166.043L622.738 165.965L651.058 140.62H651.058ZM581.327 168.041H592.993L600.243 177.104L597.641 188.414L587.168 193.449L576.664 188.398L574.061 177.089L581.327 168.041ZM618.725 199.057C619.221 199.032 619.715 199.076 620.197 199.165L620.259 199.088L658.014 205.47C652.488 220.994 641.915 234.442 627.788 243.442L613.133 208.042L613.179 207.98C611.833 204.852 613.18 201.184 616.278 199.692C617.071 199.31 617.899 199.098 618.725 199.057H618.725ZM555.316 199.212C558.197 199.252 560.781 201.252 561.451 204.185C561.764 205.558 561.612 206.918 561.094 208.12L561.203 208.259L546.702 243.302C533.145 234.603 522.346 221.577 516.57 205.594L553.999 199.243L554.061 199.32C554.48 199.243 554.904 199.206 555.316 199.212V199.212ZM586.935 214.564C587.939 214.528 588.957 214.733 589.925 215.2C591.194 215.811 592.174 216.773 592.791 217.926H592.931L611.382 251.265C608.987 252.068 606.526 252.754 604.008 253.326C589.897 256.53 575.83 255.559 563.093 251.219L581.498 217.942H581.529C582.633 215.877 584.727 214.646 586.935 214.564Z" fill="white" stroke="white" stroke-width="0.25"/>
</g>
<defs>
<clipPath id="clip0">
<rect width="762" height="348" fill="white" transform="translate(0 0.00012207)"/>
</clipPath>
</defs>
</svg>
