<svg width="216" height="155" viewBox="0 0 216 155" fill="none" xmlns="http://www.w3.org/2000/svg">
<path d="M213.513 58.5C212.913 58 207.513 53.9 195.913 53.9C192.913 53.9 189.813 54.2 186.813 54.7C184.613 39.4 171.913 32 171.413 31.6L168.313 29.8L166.313 32.7C163.813 36.6 161.913 41 160.813 45.5C158.713 54.2 160.013 62.4 164.413 69.4C159.113 72.4 150.513 73.1 148.713 73.2H6.71305C3.01305 73.2 0.0130517 76.2 0.0130517 79.9C-0.186948 92.3 1.91305 104.7 6.21305 116.4C11.1131 129.2 18.4131 138.7 27.8131 144.5C38.4131 151 55.7131 154.7 75.2131 154.7C84.0131 154.7 92.8131 153.9 101.513 152.3C113.613 150.1 125.213 145.9 135.913 139.8C144.713 134.7 152.613 128.2 159.313 120.6C170.613 107.9 177.313 93.7 182.213 81.1C182.913 81.1 183.513 81.1 184.213 81.1C196.513 81.1 204.113 76.2 208.313 72C211.113 69.4 213.213 66.2 214.713 62.6L215.613 60L213.513 58.5Z" fill="#0091E2"/>
<path d="M19.913 69.1002H38.913C39.813 69.1002 40.613 68.4002 40.613 67.4002V50.4002C40.613 49.5002 39.913 48.7002 38.913 48.7002H19.913C19.013 48.7002 18.213 49.4002 18.213 50.4002V67.4002C18.313 68.4002 19.013 69.1002 19.913 69.1002Z" fill="#0091E2"/>
<path d="M46.1131 69.1002H65.1131C66.0131 69.1002 66.8131 68.4002 66.8131 67.4002V50.4002C66.8131 49.5002 66.1131 48.7002 65.1131 48.7002H46.1131C45.2131 48.7002 44.4131 49.4002 44.4131 50.4002V67.4002C44.5131 68.4002 45.2131 69.1002 46.1131 69.1002Z" fill="#0091E2"/>
<path d="M72.813 69.1002H91.813C92.713 69.1002 93.513 68.4002 93.513 67.4002V50.4002C93.513 49.5002 92.813 48.7002 91.813 48.7002H72.813C71.913 48.7002 71.113 49.4002 71.113 50.4002V67.4002C71.113 68.4002 71.813 69.1002 72.813 69.1002Z" fill="#0091E2"/>
<path d="M99.1131 69.1002H118.113C119.013 69.1002 119.813 68.4002 119.813 67.4002V50.4002C119.813 49.5002 119.113 48.7002 118.113 48.7002H99.1131C98.2131 48.7002 97.4131 49.4002 97.4131 50.4002V67.4002C97.4131 68.4002 98.2131 69.1002 99.1131 69.1002Z" fill="#0091E2"/>
<path d="M46.1131 44.8002H65.1131C66.0131 44.8002 66.8131 44.0002 66.8131 43.1002V26.1002C66.8131 25.2002 66.1131 24.4001 65.1131 24.4001H46.1131C45.2131 24.4001 44.4131 25.1002 44.4131 26.1002V43.1002C44.5131 44.0002 45.2131 44.8002 46.1131 44.8002Z" fill="#0091E2"/>
<path d="M72.813 44.8002H91.813C92.713 44.8002 93.513 44.0002 93.513 43.1002V26.1002C93.513 25.2002 92.813 24.4001 91.813 24.4001H72.813C71.913 24.4001 71.113 25.1002 71.113 26.1002V43.1002C71.113 44.0002 71.813 44.8002 72.813 44.8002Z" fill="#0091E2"/>
<path d="M99.1131 44.8002H118.113C119.013 44.8002 119.813 44.0002 119.813 43.1002V26.1002C119.813 25.2002 119.013 24.4001 118.113 24.4001H99.1131C98.2131 24.4001 97.4131 25.1002 97.4131 26.1002V43.1002C97.4131 44.0002 98.2131 44.8002 99.1131 44.8002Z" fill="#0091E2"/>
<path d="M99.1131 20.4H118.113C119.013 20.4 119.813 19.7 119.813 18.7V1.70001C119.813 0.800012 119.013 0 118.113 0H99.1131C98.2131 0 97.4131 0.700012 97.4131 1.70001V18.7C97.4131 19.6 98.2131 20.4 99.1131 20.4Z" fill="#0091E2"/>
<path d="M125.613 69.1002H144.613C145.513 69.1002 146.313 68.4002 146.313 67.4002V50.4002C146.313 49.5002 145.613 48.7002 144.613 48.7002H125.613C124.713 48.7002 123.913 49.4002 123.913 50.4002V67.4002C124.013 68.4002 124.713 69.1002 125.613 69.1002Z" fill="#0091E2"/>
</svg>
